# xmcd CD database file
#
# Track frame offsets:
#	150
#	17080
#	36189
#	49679
#	58349
#	72264
#	82377
#	95707
#	107724
#	117240
#
# Disc length: 1813 seconds
#
# Revision: 0
# Processed by: cddbd v1.5.2PL0 Copyright (c) Steve Scherf et al.
# Submitted via: CDex 1.70beta2
#
DISCID=8f07130a
DTITLE=Austin Mc Gee - A Tributte To Ray Charles
DYEAR=1900
DGENRE=Blues
TTITLE0=Georgia on my Mind
TTITLE1=I Can'r Stop Loving You
TTITLE2=You Are My Sunshine
TTITLE3=Hit The Road Jack
TTITLE4=What'd I Say
TTITLE5=Hallelujah I Love Her So
TTITLE6=I Got A Woman
TTITLE7=Take These Chains From My Heart
TTITLE8=Busted
TTITLE9=Ellie My Love
EXTD=
EXTT0=
EXTT1=
EXTT2=
EXTT3=
EXTT4=
EXTT5=
EXTT6=
EXTT7=
EXTT8=
EXTT9=
PLAYORDER=
